<?xml version="1.0" standalone="no"?>
<!DOCTYPE svg PUBLIC "-//W3C//DTD SVG 20010904//EN"
 "http://www.w3.org/TR/2001/REC-SVG-20010904/DTD/svg10.dtd">
<svg version="1.0" xmlns="http://www.w3.org/2000/svg"
 width="524.000000pt" height="515.000000pt" viewBox="0 0 524.000000 515.000000"
 preserveAspectRatio="xMidYMid meet">

<g transform="translate(0.000000,515.000000) scale(0.100000,-0.100000)"
fill="#000000" stroke="none">
<path d="M2663 4794 c36 -19 34 -31 -5 -39 -18 -4 -43 -14 -56 -22 -21 -13
-27 -12 -66 6 -59 29 -68 26 -18 -6 23 -15 42 -30 42 -34 0 -11 -111 -99 -125
-99 -8 0 -26 5 -42 10 -26 9 -27 9 -9 -5 11 -8 26 -15 33 -15 7 0 13 -3 13 -7
-1 -24 -74 -78 -90 -68 -6 3 -10 -1 -10 -9 0 -9 -6 -16 -12 -16 -7 0 -19 -4
-27 -9 -12 -8 -12 -12 -2 -24 10 -13 8 -17 -9 -22 -16 -5 -19 -10 -11 -18 13
-13 15 -47 2 -47 -5 0 -28 -16 -51 -35 -34 -29 -50 -35 -87 -35 -50 0 -50 -14
-1 -24 25 -5 29 -9 19 -16 -12 -7 -13 -11 -1 -24 17 -21 12 -25 -46 -40 -55
-14 -68 -33 -27 -38 30 -4 31 -4 -38 -30 -20 -7 -25 -15 -22 -32 6 -28 -12
-43 -63 -54 l-39 -9 34 -15 c33 -15 33 -16 13 -27 -11 -6 -31 -11 -44 -11
l-23 0 25 -20 c22 -17 23 -19 7 -26 -9 -3 -26 -4 -37 -1 -21 5 -27 -7 -9 -18
7 -5 3 -15 -11 -30 -20 -22 -21 -23 -3 -28 17 -4 17 -4 -2 -12 -25 -10 -55
-35 -55 -47 0 -4 10 -8 22 -8 28 0 16 -13 -37 -39 l-40 -20 45 -1 45 0 -30
-20 c-21 -14 -25 -20 -12 -20 9 0 17 -4 17 -10 0 -5 -19 -10 -42 -11 -44 0
-43 -2 17 -25 18 -7 17 -8 -7 -12 -32 -4 -34 -9 -13 -39 15 -21 14 -23 -27
-44 -24 -12 -45 -23 -48 -26 -8 -8 25 -23 51 -23 22 0 39 -15 39 -34 0 -7 -37
-44 -55 -55 -17 -11 -15 -11 17 -6 36 6 37 5 35 -25 -2 -24 -7 -30 -24 -30
-32 0 -38 -18 -9 -31 22 -10 24 -15 14 -33 -6 -11 -20 -28 -32 -38 -12 -9 -16
-17 -9 -18 6 0 15 4 18 10 3 5 15 15 25 20 17 9 19 8 13 -7 -3 -10 -19 -35
-36 -55 -30 -39 -29 -45 4 -28 21 12 24 7 9 -20 -5 -10 -21 -21 -35 -24 -27
-7 -35 -26 -10 -26 22 0 29 -25 13 -52 -7 -13 -13 -27 -14 -33 0 -5 -8 -28
-18 -50 -20 -45 -22 -135 -3 -150 6 -5 11 -25 9 -43 -2 -19 0 -41 3 -50 4 -10
7 -46 7 -82 l0 -65 -39 -11 c-89 -26 -129 -58 -169 -136 l-24 -48 -83 0 c-101
0 -201 15 -247 38 -21 10 -48 38 -67 67 -78 120 -194 207 -319 239 -77 20
-106 20 -201 0 -170 -35 -335 -155 -433 -315 -56 -90 -81 -169 -87 -274 -5
-80 -2 -98 21 -159 32 -84 80 -151 149 -207 29 -24 53 -44 55 -45 2 -1 -19
-25 -47 -53 -124 -128 -122 -311 7 -483 81 -108 208 -211 347 -281 174 -87
309 -118 438 -99 193 29 304 136 345 333 25 122 51 135 282 145 136 6 222 0
705 -47 195 -19 288 -22 825 -23 660 -2 665 -3 781 -61 40 -21 58 -39 87 -88
162 -271 440 -346 738 -200 138 67 265 197 315 322 27 70 37 219 19 300 -17
79 -81 197 -152 282 l-61 73 34 25 c63 46 140 134 172 195 29 55 32 69 32 151
0 80 -4 97 -32 157 -61 129 -215 254 -389 315 -69 24 -94 28 -199 28 -116 0
-123 -1 -186 -32 -124 -61 -190 -152 -227 -313 -12 -54 -45 -65 -182 -64 -64
1 -150 4 -192 8 l-76 8 -4 69 c-2 39 1 74 6 79 4 4 7 27 4 49 -2 25 1 42 8 45
18 7 22 96 7 133 -17 41 -16 46 2 39 13 -4 13 -2 5 14 -5 10 -15 22 -20 25
-16 10 -12 35 5 29 20 -8 19 5 -1 27 -18 20 -10 43 12 35 12 -5 12 -1 -1 24
-19 37 -19 50 0 50 22 0 18 17 -5 23 -23 6 -27 37 -5 37 20 0 19 10 -1 25 -9
6 -18 28 -19 48 -3 35 -2 37 28 38 l32 1 -27 10 c-33 12 -36 38 -7 64 20 18
20 18 0 26 -22 8 -58 68 -41 68 6 0 22 -7 36 -16 35 -24 40 -11 14 33 -13 21
-24 57 -26 81 -3 40 -2 42 22 36 29 -7 30 -4 4 38 -21 35 -27 63 -10 53 6 -3
10 -2 10 4 0 5 -4 13 -10 16 -5 3 -10 13 -10 21 0 12 4 13 21 4 28 -15 35 -6
17 22 -23 36 -30 60 -15 52 6 -4 0 6 -15 23 -16 16 -28 38 -28 49 0 15 8 11
35 -21 19 -22 34 -36 35 -31 1 25 -34 143 -46 157 -8 8 -16 31 -20 50 l-5 34
18 -22 c10 -12 26 -34 36 -48 10 -14 23 -25 28 -25 6 0 -5 21 -23 46 -30 43
-33 51 -30 111 1 36 7 74 13 85 5 10 7 28 4 39 -7 20 -6 20 19 3 36 -23 41
-13 16 32 -20 34 -21 42 -10 75 8 22 10 55 6 78 -6 40 -5 41 21 42 l28 0 -25
12 c-33 15 -40 26 -40 65 0 36 10 39 73 21 22 -6 41 -8 44 -5 9 9 -63 36 -95
36 -27 0 -30 3 -35 45 -2 26 -7 48 -10 51 -8 8 -40 8 -66 0 -30 -10 -19 11 13
24 l21 9 -21 0 c-12 1 -38 -10 -58 -24 -20 -14 -51 -32 -69 -41 -17 -9 -45
-27 -60 -40 -16 -13 -37 -24 -47 -24 -22 0 -75 -53 -91 -91 -9 -22 -16 -28
-30 -24 -15 5 -19 1 -19 -21 0 -25 -3 -26 -32 -21 -18 3 -46 10 -63 17 l-30
12 30 26 c30 25 22 27 -27 7 -13 -5 -16 -1 -15 24 3 42 -14 43 -29 1 -9 -26
-13 -29 -13 -13 -1 27 -11 53 -20 53 -4 0 -7 -10 -7 -22 1 -13 -4 -22 -11 -20
-7 1 -13 -5 -13 -13 0 -24 -14 -17 -33 16 -19 34 -36 34 -18 1 10 -19 7 -20
-55 -18 l-66 1 5 30 c3 17 11 56 18 87 10 45 10 61 1 70 -9 9 -12 6 -12 -17 0
-23 -3 -27 -10 -15 -6 9 -8 46 -4 92 6 71 4 82 -20 133 -15 30 -34 55 -42 55
-12 0 -12 -4 1 -31 9 -17 14 -38 12 -47 -2 -12 -8 -6 -19 19 -16 37 -90 89
-125 89 -14 -1 -11 -4 10 -16z m87 -106 c0 -10 4 -18 8 -18 19 0 42 -76 48
-158 8 -118 7 -113 6 -148 -2 -23 -8 -34 -24 -39 -15 -5 13 -10 82 -15 106 -8
175 -22 284 -60 85 -29 107 -27 142 16 63 78 117 134 129 134 6 0 24 10 39 23
15 13 50 29 78 36 28 8 62 20 77 27 20 11 26 11 28 1 0 -6 9 -68 19 -135 13
-90 15 -129 7 -141 -6 -9 -14 -37 -19 -61 -9 -50 -8 -49 -16 -70 -13 -34 -28
-124 -28 -164 0 -23 -5 -47 -11 -53 -9 -9 -3 -32 29 -97 2 -4 -6 -5 -18 -1
-24 8 -24 10 1 -154 8 -55 8 -84 0 -110 -6 -20 -11 -45 -10 -56 3 -51 -20
-185 -39 -221 -12 -23 -26 -63 -33 -89 -11 -43 -13 -46 -25 -30 -16 22 -15 24
-43 -45 -32 -75 -41 -83 -41 -30 l0 43 -21 -19 c-17 -15 -23 -16 -27 -6 -2 9
-14 -2 -28 -27 -16 -26 -30 -38 -39 -34 -8 3 -15 1 -15 -4 0 -6 -11 -15 -24
-21 -14 -6 -43 -28 -65 -48 -33 -29 -41 -33 -41 -18 0 15 -6 12 -33 -14 -18
-18 -39 -32 -47 -32 -7 0 -24 -10 -37 -22 l-23 -21 -8 22 c-7 21 -9 20 -27
-16 -14 -29 -20 -34 -23 -20 -3 16 -9 13 -47 -17 -29 -24 -45 -32 -48 -23 -4
8 -12 4 -25 -12 -11 -14 -28 -26 -37 -27 -10 -2 -21 -8 -25 -14 -4 -7 -16 -9
-28 -6 -18 6 -22 2 -27 -21 -9 -40 -26 -83 -35 -88 -5 -3 -16 19 -26 47 -9 29
-25 71 -35 92 l-17 39 -30 -59 -30 -59 -36 77 c-36 77 -36 78 -56 58 -26 -26
-42 -25 -70 5 -18 19 -26 22 -32 13 -6 -10 -13 -7 -27 10 -20 23 -41 29 -41
12 0 -18 -18 -11 -25 9 -3 11 -16 32 -28 47 l-21 28 -6 -25 c-6 -22 -9 -19
-34 29 -15 29 -31 50 -36 47 -5 -3 -21 19 -36 50 -23 46 -29 52 -39 39 -9 -14
-13 -12 -23 11 -12 26 -14 27 -26 10 -12 -17 -14 -15 -20 18 -8 44 -20 47 -41
10 l-16 -28 5 36 c2 20 0 42 -5 50 -8 12 -12 11 -25 -6 -16 -20 -16 -19 -11 5
2 14 8 33 12 43 6 15 2 17 -26 15 -37 -3 -36 -10 -25 95 3 31 1 38 -13 36 -29
-3 -33 1 -17 17 18 18 21 44 5 44 -7 0 -8 22 -4 68 4 47 3 63 -4 52 -7 -11
-13 -12 -21 -4 -8 8 0 21 30 47 44 40 47 47 25 47 -19 0 -19 9 1 32 14 14 14
21 4 33 -10 12 -6 18 24 36 41 24 45 34 16 42 -29 7 -25 28 14 77 19 24 32 49
29 56 -2 7 9 22 26 35 17 12 28 26 25 31 -3 4 7 24 22 43 15 20 21 35 14 35
-23 0 10 28 48 41 33 11 34 13 17 25 -12 9 -14 14 -6 14 8 0 42 29 77 65 35
36 57 65 49 65 -18 0 -19 12 -4 27 6 6 16 21 23 34 6 12 26 29 44 38 21 11 35
25 39 43 4 20 15 31 39 40 27 9 31 14 19 21 -23 13 -18 25 15 32 24 5 29 10
20 20 -8 10 -6 15 8 20 23 7 82 61 98 90 6 11 25 23 43 28 25 6 30 11 22 21
-13 16 0 29 38 41 14 4 38 16 55 26 28 17 32 17 48 2 10 -9 18 -24 18 -35z
m851 -1537 c-19 -37 -20 -42 -6 -82 9 -23 14 -52 13 -63 -1 -12 1 -37 6 -57 6
-27 4 -43 -7 -60 -18 -28 -18 -113 1 -146 11 -19 10 -23 -3 -23 -20 0 -19 -5
10 -48 31 -45 31 -52 2 -52 -35 0 -38 -9 -17 -51 25 -48 25 -49 -5 -49 -29 0
-30 -5 -10 -40 19 -33 19 -50 0 -50 -19 0 -19 -14 0 -30 8 -6 14 -24 13 -38 0
-15 5 -52 13 -83 11 -51 11 -60 -4 -83 -16 -23 -83 -66 -105 -66 -5 0 -14 23
-20 51 -17 73 -41 119 -62 119 -28 0 -29 -22 -2 -62 32 -49 35 -127 6 -159
-32 -35 -70 -49 -134 -49 -72 0 -119 17 -149 56 -28 36 -23 72 20 133 24 34
28 46 17 52 -7 5 -17 7 -22 6 -17 -6 -46 -51 -64 -102 l-18 -50 -48 2 c-57 2
-103 19 -116 44 -25 47 -2 103 56 140 29 18 33 25 30 52 -7 52 -27 97 -47 108
-10 5 -19 18 -19 27 0 10 -6 27 -14 38 -11 15 -17 16 -27 7 -14 -14 3 -65 33
-99 17 -20 18 -21 1 -36 -10 -9 -33 -23 -51 -32 -18 -9 -30 -21 -27 -25 2 -5
0 -34 -7 -66 l-11 -57 -17 44 c-16 43 -58 108 -69 108 -3 0 -6 -44 -6 -98 0
-53 -5 -105 -11 -115 -9 -16 -14 -5 -27 61 -17 84 -53 166 -61 141 -3 -8 -16
-50 -29 -94 -23 -75 -25 -79 -36 -55 -7 14 -20 66 -30 115 l-19 90 -21 -47
c-12 -26 -25 -73 -30 -105 l-8 -58 -22 48 c-18 38 -22 62 -19 110 2 34 8 70
13 81 7 16 5 17 -11 8 -11 -6 -26 -22 -34 -36 -7 -14 -19 -26 -26 -26 -18 0
-31 53 -15 58 16 5 72 88 64 96 -14 14 -34 4 -55 -29 -13 -19 -28 -35 -34 -35
-16 0 -52 -41 -73 -86 l-20 -39 24 -25 c85 -89 35 -180 -100 -181 -62 -1 -73
4 -56 24 11 14 51 122 51 139 0 4 -11 8 -25 8 -20 0 -25 -5 -25 -25 0 -39 -39
-112 -73 -137 -49 -36 -83 -48 -138 -48 -126 0 -187 92 -123 186 15 21 30 42
35 45 5 3 3 13 -4 23 -13 18 -15 18 -37 -5 -26 -27 -59 -96 -60 -121 0 -24
-33 -23 -87 1 -71 33 -100 107 -68 174 20 43 92 94 144 103 63 10 71 15 71 38
0 12 5 27 11 33 18 18 20 83 3 83 -18 0 -17 18 1 50 20 35 19 40 -10 40 -30 0
-30 1 -5 49 21 42 18 51 -17 51 -29 0 -29 8 2 54 14 21 23 41 20 46 -3 5 1 20
9 32 8 13 15 39 15 58 0 19 7 58 14 85 13 47 15 48 22 23 4 -16 12 -25 20 -22
7 3 15 -6 18 -24 3 -16 12 -36 20 -44 8 -8 22 -28 31 -46 18 -35 52 -59 58
-40 4 12 58 -18 58 -32 0 -12 29 -40 41 -40 5 0 9 10 9 23 0 24 69 -117 70
-143 1 -12 3 -11 11 3 10 16 11 16 28 -4 10 -12 26 -23 37 -24 10 -1 32 -8 48
-16 23 -11 30 -11 34 -1 2 8 15 0 33 -20 24 -28 31 -31 39 -18 8 13 11 13 19
1 5 -8 14 -10 21 -6 8 5 19 1 28 -11 10 -14 16 -16 19 -6 3 7 20 -13 40 -46
19 -33 46 -72 59 -88 l23 -29 1 50 c1 53 13 95 22 79 3 -5 18 -47 33 -93 31
-95 32 -95 81 1 26 51 43 67 53 49 5 -7 29 9 67 44 41 39 60 51 62 40 5 -21
12 -19 50 18 24 22 36 28 39 19 4 -10 8 -10 19 -1 11 9 14 8 14 -7 0 -14 6
-11 21 14 13 20 29 32 43 32 12 0 39 17 61 40 24 24 42 36 46 29 9 -15 112 58
144 101 20 27 25 30 25 14 -1 -10 -7 -30 -15 -44 -17 -30 -18 -40 -5 -40 17 0
110 91 126 123 8 15 19 25 25 21 18 -11 39 17 58 80 35 110 41 123 52 104 7
-13 4 -29 -10 -57z m-2766 -545 c78 -39 122 -80 187 -176 70 -103 144 -130
359 -130 114 0 119 -1 134 -24 24 -37 90 -76 140 -82 37 -6 48 -13 69 -44 35
-53 93 -74 190 -68 52 3 82 11 102 25 25 18 40 20 105 16 46 -3 91 -1 112 6
38 13 97 71 97 96 0 11 11 15 38 15 30 0 41 -5 54 -27 9 -16 33 -44 53 -63
l37 -35 -4 54 c-3 62 12 78 31 32 13 -31 39 -58 83 -85 l26 -17 -12 43 c-15
53 -11 78 15 78 17 0 19 -7 19 -60 0 -36 -7 -74 -16 -91 -21 -42 -12 -46 31
-13 40 31 70 81 80 138 5 25 11 34 17 28 7 -7 7 -30 0 -69 -5 -32 -8 -60 -6
-62 6 -7 44 42 63 81 17 37 31 41 31 8 0 -21 47 -66 83 -79 16 -6 51 -11 78
-11 45 0 53 -4 92 -44 34 -35 53 -46 96 -55 92 -19 194 7 237 62 11 13 43 31
76 40 41 13 66 28 92 57 20 22 36 47 36 55 0 14 24 15 198 9 275 -9 320 6 342
114 39 192 159 294 343 293 94 0 167 -20 267 -72 82 -43 129 -82 183 -154 124
-162 67 -343 -154 -487 l-79 -52 69 -70 c163 -165 217 -280 209 -440 -4 -69
-10 -93 -42 -158 -73 -148 -224 -258 -403 -295 -71 -15 -92 -16 -155 -5 -139
24 -235 89 -305 206 -49 83 -88 122 -150 151 -122 58 -127 59 -768 61 -644 2
-628 1 -1055 46 -207 21 -351 31 -485 31 -176 2 -194 0 -245 -21 -98 -40 -120
-69 -150 -196 -24 -103 -44 -141 -103 -191 -173 -148 -585 -44 -824 208 -186
196 -175 371 31 491 l67 39 -74 39 c-93 49 -176 129 -213 205 -24 49 -28 71
-29 143 0 103 19 165 82 267 106 172 315 291 488 278 41 -3 82 -16 130 -39z
m1524 -259 c17 4 21 1 21 -21 0 -22 -4 -26 -27 -26 -36 0 -62 43 -55 89 l5 33
17 -40 c15 -33 22 -40 39 -35z m581 3 c0 -9 -47 -60 -55 -60 -16 0 -1 50 18
63 22 15 37 14 37 -3z"/>
<path d="M2640 4639 c-72 -40 -174 -147 -228 -238 -24 -40 -41 -75 -39 -77 2
-3 33 3 68 12 49 13 94 15 191 12 l127 -5 7 44 c4 25 4 64 1 88 -10 67 -50
195 -62 195 -5 0 -35 -14 -65 -31z m83 -69 c34 -121 33 -216 -1 -206 -10 2
-52 7 -94 11 -88 8 -91 11 -58 82 25 56 122 185 131 176 4 -5 14 -33 22 -63z"/>
<path d="M3513 4410 c-58 -29 -203 -164 -203 -189 0 -6 18 -20 39 -31 55 -27
158 -126 182 -172 11 -21 24 -36 29 -33 18 11 51 120 62 208 6 55 8 123 4 170
-7 71 -9 77 -30 77 -13 0 -50 -13 -83 -30z m73 -52 c-10 -81 -25 -117 -77
-172 -47 -52 -58 -55 -85 -25 -10 12 -36 30 -57 41 l-38 19 29 37 c41 51 87
90 151 129 79 48 85 46 77 -29z"/>
<path d="M2585 4176 c-77 -24 -160 -85 -141 -103 4 -4 17 5 31 19 34 37 105
68 169 75 31 3 53 10 50 14 -7 13 -62 10 -109 -5z"/>
<path d="M3032 4113 c-6 -3 -10 -9 -7 -13 3 -5 11 -7 18 -4 38 14 145 -63 178
-129 22 -42 35 -44 25 -3 -17 70 -160 170 -214 149z"/>
<path d="M2636 3818 c-35 -50 -11 -126 37 -114 20 5 28 14 33 43 13 68 -37
118 -70 71z"/>
<path d="M2922 3767 c-29 -35 -21 -110 14 -124 29 -11 57 35 51 81 -7 51 -40
73 -65 43z"/>
<path d="M2385 3653 c-50 -11 -85 -25 -80 -32 2 -5 16 -6 30 -3 23 4 25 1 25
-29 0 -19 -7 -43 -15 -53 -24 -32 -19 -83 10 -102 21 -14 25 -24 25 -68 0 -29
9 -70 20 -95 11 -24 20 -60 20 -80 0 -50 44 -136 88 -169 32 -24 44 -27 117
-27 73 0 87 3 131 30 29 18 61 50 79 77 17 26 37 50 46 53 8 3 38 28 65 55 30
30 58 50 72 50 33 0 62 34 62 74 0 37 12 51 52 61 25 6 27 4 33 -29 4 -20 12
-36 17 -36 14 0 1 68 -18 98 -17 26 -60 49 -71 38 -4 -4 3 -16 17 -26 18 -15
21 -20 9 -20 -35 0 -68 -39 -71 -83 -3 -40 -5 -43 -42 -52 -26 -6 -53 -24 -80
-53 -50 -54 -94 -77 -176 -92 -145 -26 -279 34 -326 146 -8 19 -14 59 -14 91
0 54 -2 59 -31 75 -25 15 -29 22 -24 40 4 13 14 30 21 39 8 8 14 34 14 57 0
33 4 41 20 44 12 2 21 8 21 13 0 12 -18 15 -46 8z m116 -499 c60 -37 164 -57
241 -44 34 5 64 7 67 4 5 -5 -59 -64 -70 -64 -4 0 -26 7 -50 16 -24 9 -80 17
-124 19 -80 2 -80 3 -97 36 -18 33 -23 59 -13 59 3 0 24 -12 46 -26z"/>
<path d="M3386 3621 c-15 -17 -15 -19 -1 -25 13 -5 14 -10 5 -28 -10 -21 -10
-21 11 2 12 14 25 24 28 23 4 -1 7 7 7 17 0 11 -2 17 -5 15 -2 -3 -10 0 -16 5
-8 7 -17 4 -29 -9z m29 -21 c-5 -8 -11 -8 -17 -2 -6 6 -7 16 -3 22 5 8 11 8
17 2 6 -6 7 -16 3 -22z"/>
<path d="M2585 3499 c-22 -5 -54 -23 -71 -40 -26 -25 -32 -41 -38 -90 -5 -51
-3 -65 17 -94 12 -19 29 -37 39 -40 9 -3 19 -12 22 -20 3 -8 14 -15 25 -15 11
0 21 -5 23 -12 5 -15 130 -13 160 3 54 27 88 61 97 96 15 52 -3 122 -39 153
-60 53 -74 60 -121 60 -26 0 -53 2 -61 4 -7 2 -31 0 -53 -5z"/>
<path d="M1939 3303 c-20 -23 -20 -25 -2 -9 12 10 26 15 31 12 5 -3 9 1 9 9 0
22 -11 18 -38 -12z"/>
<path d="M340 2274 c0 -8 5 -12 10 -9 6 4 8 11 5 16 -9 14 -15 11 -15 -7z"/>
<path d="M3618 2036 c-15 -11 -17 -40 -18 -263 0 -248 0 -251 20 -246 11 3 23
10 26 15 9 14 5 491 -4 500 -4 4 -15 1 -24 -6z"/>
<path d="M685 2028 c-61 -33 -110 -100 -145 -196 -44 -121 -13 -299 66 -373
20 -19 36 -24 79 -24 46 0 61 6 112 40 58 40 117 120 129 175 3 14 8 32 11 40
4 8 6 17 5 20 0 3 -3 37 -7 75 -11 130 -41 194 -109 236 -35 21 -109 25 -141
7z m113 -75 c42 -26 69 -85 87 -185 5 -35 4 -38 -17 -38 -21 -1 -22 -2 -5 -14
22 -17 22 -44 -2 -99 -27 -63 -96 -117 -149 -117 -38 0 -44 4 -81 53 -89 119
-81 279 19 380 45 45 51 48 87 41 21 -3 48 -13 61 -21z"/>
<path d="M2005 2026 c-86 -37 -165 -197 -165 -331 1 -107 47 -211 112 -249 90
-54 247 54 295 204 14 44 17 72 11 138 -8 102 -22 144 -60 187 -54 62 -125 81
-193 51z m110 -69 c41 -21 69 -68 80 -132 3 -22 9 -52 11 -67 4 -21 2 -28 -10
-28 -9 0 -16 -4 -16 -10 0 -5 5 -10 10 -10 17 0 11 -58 -9 -99 -11 -20 -38
-54 -60 -74 -34 -31 -48 -37 -85 -37 -39 0 -48 4 -74 38 -69 88 -88 180 -57
282 19 63 72 136 109 150 23 9 70 3 101 -13z"/>
<path d="M1123 2005 c-69 -35 -100 -65 -113 -114 -23 -86 14 -130 115 -137 38
-2 85 -12 104 -21 42 -21 50 -56 32 -139 -16 -72 -54 -106 -123 -112 -76 -6
-124 23 -139 84 -13 50 -33 57 -46 17 -15 -43 19 -107 72 -136 34 -18 108 -26
151 -15 78 19 140 110 151 220 12 135 -29 175 -186 180 -54 1 -91 22 -91 51 0
12 49 55 85 74 27 15 65 18 93 9 27 -9 52 8 52 34 0 38 -84 41 -157 5z"/>
<path d="M2445 2006 c-90 -42 -133 -110 -114 -179 14 -52 38 -68 110 -72 35
-2 82 -10 104 -17 l40 -13 0 -70 c0 -40 -7 -84 -15 -102 -29 -63 -124 -91
-195 -58 -33 16 -49 40 -59 88 -7 30 -30 36 -40 11 -27 -70 43 -153 142 -168
84 -13 160 31 204 118 24 46 35 177 19 218 -14 36 -57 57 -133 64 -95 9 -128
21 -128 48 0 48 126 120 170 96 26 -14 50 -2 50 25 0 42 -77 48 -155 11z"/>
<path d="M1468 2003 c-14 -15 -16 -51 -16 -233 0 -118 -3 -241 -6 -272 -7 -63
5 -75 37 -40 14 15 17 47 19 177 l3 160 31 -90 c17 -49 42 -123 54 -162 28
-88 51 -97 69 -30 6 23 27 93 45 156 l33 113 7 -60 c4 -32 7 -109 7 -171 0
-100 2 -111 18 -111 10 0 25 8 35 18 14 16 15 31 7 113 -5 52 -13 174 -17 272
-7 186 -11 199 -50 156 -11 -12 -19 -36 -19 -62 -1 -42 -54 -255 -77 -310
l-11 -29 -17 34 c-9 18 -33 94 -54 168 -67 238 -67 238 -98 203z"/>
<path d="M2686 1999 c-19 -28 -20 -46 -4 -51 9 -3 12 -62 12 -234 -1 -126 -3
-240 -5 -253 l-4 -24 175 2 c149 2 177 5 188 18 6 9 12 24 12 33 0 14 -17 16
-148 12 l-149 -4 -6 162 c-4 89 -4 166 -1 171 3 6 37 8 79 5 79 -6 105 5 105
44 0 17 -8 19 -92 17 l-93 -2 -3 28 -3 27 101 0 c98 0 101 1 112 25 17 37 2
45 -57 34 -45 -9 -126 -6 -181 8 -15 3 -27 -3 -38 -18z"/>
<path d="M3538 1905 c-21 -28 -24 -65 -5 -65 20 0 48 39 45 63 -4 29 -20 30
-40 2z"/>
<path d="M1360 1885 c-7 -9 -10 -27 -7 -45 4 -16 2 -32 -3 -35 -6 -4 -7 -12
-3 -18 4 -6 6 -24 5 -39 -3 -32 24 -50 39 -27 5 8 9 51 9 97 0 63 -3 82 -14
82 -7 0 -19 -7 -26 -15z"/>
<path d="M3176 1864 c-12 -11 -15 -25 -10 -49 4 -23 2 -35 -9 -41 -8 -5 -18
-19 -22 -32 -5 -19 -3 -25 14 -29 19 -5 21 -13 21 -88 0 -102 12 -119 66 -90
20 10 37 29 41 43 l6 24 13 -30 c17 -40 47 -56 96 -48 68 11 98 56 98 149 0
66 -34 107 -90 107 -60 0 -120 -76 -120 -152 0 -11 -8 -18 -20 -18 -11 0 -20
-4 -20 -10 0 -5 -4 -10 -10 -10 -6 0 -10 27 -10 60 0 51 3 60 18 60 25 0 42
20 42 48 0 22 -3 24 -29 19 -30 -6 -30 -6 -33 45 -3 55 -16 68 -42 42z m248
-156 c20 -28 21 -102 2 -117 -8 -7 -27 -11 -43 -9 -39 4 -58 46 -43 93 18 55
58 71 84 33z"/>
<path d="M3912 1868 c-6 -6 -12 -29 -12 -49 0 -20 -7 -42 -15 -49 -8 -7 -15
-21 -15 -32 0 -10 7 -21 15 -24 11 -5 15 -24 15 -81 0 -111 17 -131 79 -95 23
12 31 24 31 45 0 17 -5 27 -15 27 -8 0 -15 -4 -15 -10 0 -5 -7 -10 -15 -10
-13 0 -15 11 -13 62 3 60 3 61 33 63 52 3 55 -1 55 -84 0 -50 5 -84 14 -96 13
-19 15 -19 55 -1 22 11 41 23 41 27 0 4 11 -3 25 -17 22 -22 30 -24 82 -18 32
4 64 11 71 17 13 11 15 86 3 160 -9 52 -31 76 -71 77 -32 0 -90 -35 -90 -54 0
-23 39 -30 61 -11 15 15 21 15 34 5 22 -19 18 -27 -16 -34 -17 -3 -47 -22 -66
-41 -19 -19 -41 -35 -49 -35 -8 0 -14 -4 -14 -10 0 -5 -7 -10 -15 -10 -12 0
-15 13 -15 60 0 55 2 60 21 60 25 0 48 26 49 53 0 15 -6 18 -32 15 l-33 -3 -3
53 c-2 33 -8 52 -16 52 -22 0 -36 -23 -36 -62 0 -35 -2 -38 -30 -39 -16 -1
-36 -2 -42 -3 -9 -1 -13 15 -13 49 0 52 -17 69 -43 43z m367 -237 c23 -15 -4
-51 -39 -51 -49 0 -31 53 20 59 3 0 11 -3 19 -8z"/>
<path d="M4546 1801 c-3 -5 -33 -12 -65 -16 -75 -9 -108 -39 -117 -108 -5 -33
-3 -47 5 -47 8 0 10 -14 5 -48 -9 -67 8 -82 81 -75 52 6 55 5 65 -22 20 -52
-26 -91 -96 -83 -26 3 -29 6 -29 42 0 48 -16 56 -44 20 -28 -35 -27 -56 5 -93
22 -27 33 -31 73 -31 68 0 122 42 140 108 22 78 -22 139 -91 128 -47 -8 -48 2
-4 32 31 21 54 58 60 94 1 8 9 27 19 41 9 15 17 33 17 41 0 18 -17 30 -24 17z
m-67 -105 c3 -18 -22 -46 -41 -46 -13 0 -28 38 -22 55 9 23 58 16 63 -9z"/>
<path d="M3530 1775 c-12 -14 -16 -233 -4 -244 3 -3 13 0 22 5 14 9 17 31 20
133 2 99 0 121 -11 121 -8 0 -20 -7 -27 -15z"/>
<path d="M3748 1775 c-64 -36 -93 -148 -53 -209 21 -32 51 -40 109 -32 34 5
45 12 50 29 15 57 1 72 -34 37 -29 -29 -57 -25 -80 13 -31 51 -27 56 48 59
l67 3 -2 30 c-3 36 -33 79 -59 82 -10 2 -31 -4 -46 -12z"/>
<path d="M4630 1764 c-66 -56 -81 -147 -34 -203 22 -26 33 -31 71 -31 58 0 80
13 88 51 10 42 -10 53 -40 23 -13 -13 -31 -24 -39 -24 -19 0 -56 47 -56 71 0
17 8 19 65 19 64 0 65 0 65 28 0 26 -22 69 -44 84 -20 14 -44 8 -76 -18z"/>
<path d="M4605 1153 c-11 -3 -25 -10 -32 -15 -7 -5 -17 -7 -23 -3 -5 3 -10 -2
-10 -14 0 -11 5 -23 11 -26 6 -4 8 -14 5 -22 -4 -10 5 -8 32 8 46 28 64 43 38
33 -31 -12 -39 18 -8 32 28 13 22 15 -13 7z m-15 -43 c0 -11 -4 -20 -9 -20
-14 0 -23 18 -16 30 10 17 25 11 25 -10z"/>
</g>
</svg>
