<?xml version="1.0" standalone="no"?>
<!DOCTYPE svg PUBLIC "-//W3C//DTD SVG 20010904//EN"
 "http://www.w3.org/TR/2001/REC-SVG-20010904/DTD/svg10.dtd">
<svg version="1.0" xmlns="http://www.w3.org/2000/svg"
 width="79.000000pt" height="81.000000pt" viewBox="0 0 79.000000 81.000000"
 preserveAspectRatio="xMidYMid meet">

<g transform="translate(0.000000,81.000000) scale(0.100000,-0.100000)"
fill="#000000" stroke="none">
<path d="M252 722 c-223 -80 -294 -361 -134 -534 41 -44 122 -101 93 -65 -14
18 -25 85 -23 147 1 21 8 41 20 50 22 18 20 23 -47 113 -25 34 -41 47 -54 43
-20 -5 -40 25 -31 49 10 25 35 14 57 -25 10 -19 27 -44 37 -55 10 -11 31 -40
46 -65 19 -30 37 -46 54 -48 13 -2 55 -15 92 -29 38 -13 73 -21 78 -18 6 3 7
23 4 44 -8 50 17 108 50 117 15 4 36 -1 54 -11 27 -16 30 -16 55 -1 24 17 26
16 37 -3 18 -35 -4 -91 -51 -132 -40 -34 -42 -39 -41 -84 2 -30 -4 -57 -14
-73 l-17 -25 31 21 c90 65 135 152 136 267 1 72 -3 88 -32 147 -56 113 -150
176 -276 184 -53 4 -84 0 -124 -14z"/>
<path d="M90 509 c0 -5 5 -7 10 -4 6 3 10 8 10 11 0 2 -4 4 -10 4 -5 0 -10 -5
-10 -11z"/>
<path d="M507 432 c14 -9 43 -88 43 -118 0 -12 -7 -27 -15 -34 -9 -7 -14 -14
-12 -16 6 -6 83 69 96 93 12 24 15 73 4 73 -5 0 -17 -7 -27 -15 -17 -13 -23
-12 -51 5 -18 11 -36 20 -41 20 -5 0 -4 -4 3 -8z"/>
<path d="M476 395 c-11 -30 -6 -73 12 -94 15 -20 19 -20 36 -8 19 14 19 17 4
63 -16 50 -40 68 -52 39z"/>
<path d="M216 304 c-9 -8 -16 -29 -16 -45 0 -29 0 -29 25 -13 34 22 71 11 90
-26 14 -26 21 -30 58 -30 40 0 44 2 52 32 6 18 20 38 32 43 14 7 19 16 14 24
-6 10 -10 9 -14 -3 -9 -22 -31 -20 -117 9 -86 29 -103 31 -124 9z"/>
<path d="M456 245 c-31 -31 -27 -84 8 -107 30 -20 76 15 76 57 0 27 -32 65
-54 65 -8 0 -21 -7 -30 -15z m58 -41 c8 -20 -11 -54 -29 -54 -18 0 -34 30 -27
50 11 32 45 34 56 4z"/>
<path d="M478 173 c7 -3 16 -2 19 1 4 3 -2 6 -13 5 -11 0 -14 -3 -6 -6z"/>
<path d="M226 224 c-18 -18 -21 -56 -6 -85 14 -26 66 -26 80 0 24 45 2 101
-40 101 -10 0 -26 -7 -34 -16z m59 -59 c0 -25 -4 -30 -25 -30 -16 0 -26 6 -28
18 -6 30 6 49 30 45 18 -2 23 -9 23 -33z"/>
<path d="M323 152 c-3 -13 -19 -32 -35 -42 l-29 -17 32 -7 c54 -10 113 -7 170
11 52 17 53 18 21 21 -23 2 -38 12 -50 30 -14 22 -25 27 -60 28 -37 1 -43 -2
-49 -24z"/>
</g>
</svg>
