<?xml version="1.0" standalone="no"?>
<!DOCTYPE svg PUBLIC "-//W3C//DTD SVG 20010904//EN"
 "http://www.w3.org/TR/2001/REC-SVG-20010904/DTD/svg10.dtd">
<svg version="1.0" xmlns="http://www.w3.org/2000/svg"
 width="200.000000pt" height="200.000000pt" viewBox="0 0 200.000000 200.000000"
 preserveAspectRatio="xMidYMid meet">

<g transform="translate(0.000000,200.000000) scale(0.100000,-0.100000)"
fill="#000000" stroke="none">
<path d="M853 1540 c-143 -47 -250 -173 -275 -324 -20 -118 19 -244 102 -336
23 -25 36 -36 31 -24 -5 11 -16 26 -24 32 -8 7 -27 40 -43 75 -24 52 -28 75
-29 147 0 74 4 93 31 150 39 83 102 145 184 183 85 40 193 43 285 7 84 -32
173 -123 204 -205 48 -129 22 -275 -66 -377 l-47 -53 53 50 c31 30 65 76 84
115 30 61 32 71 32 175 0 104 -2 114 -32 176 -88 178 -303 270 -490 209z"/>
<path d="M1060 1211 c-15 -4 -29 -18 -35 -35 -8 -23 -6 -30 10 -43 20 -15 19
-15 -2 -8 -17 5 -23 2 -23 -9 0 -8 -25 -48 -55 -88 -31 -40 -60 -91 -66 -113
-6 -22 -15 -51 -19 -65 l-7 -25 -14 28 c-13 29 -8 60 22 134 11 26 11 37 0 60
l-13 28 -10 -25 c-5 -14 -16 -28 -24 -33 -8 -4 -14 -17 -14 -27 0 -11 -4 -20
-9 -20 -14 0 -23 -98 -11 -120 6 -11 24 -27 40 -35 35 -18 186 -39 209 -29 9
4 26 6 39 5 23 -2 32 22 12 34 -16 10 -12 101 5 115 19 16 30 76 18 103 -12
29 -5 67 13 67 19 0 54 36 54 55 0 8 -7 15 -16 15 -9 0 -27 9 -41 20 -14 11
-28 20 -32 19 -3 -1 -17 -4 -31 -8z m18 -36 c-3 -3 -9 2 -12 12 -6 14 -5 15 5
6 7 -7 10 -15 7 -18z m9 -47 c-3 -7 -5 -2 -5 12 0 14 2 19 5 13 2 -7 2 -19 0
-25z m-48 -232 c13 -15 12 -86 -1 -86 -4 0 -7 18 -6 41 1 26 -4 44 -13 50 -8
5 -9 9 -3 9 6 0 17 -6 23 -14z"/>
<path d="M813 725 c-9 -25 4 -29 17 -6 7 15 7 21 0 21 -6 0 -13 -7 -17 -15z"/>
<path d="M1477 713 c-14 -31 -12 -163 4 -163 5 0 9 24 9 53 0 29 6 59 12 65
10 10 10 14 0 21 -11 7 -10 11 2 24 20 19 20 27 1 27 -8 0 -20 -12 -28 -27z"/>
<path d="M382 722 c-35 -23 -36 -126 -1 -158 10 -9 16 -21 13 -25 -3 -5 0 -9
6 -9 7 0 10 -7 6 -15 -3 -8 -1 -15 5 -15 7 0 9 10 5 24 -4 16 -1 26 9 30 8 3
15 10 15 17 0 6 -7 8 -16 5 -28 -11 -44 13 -44 64 0 52 16 75 45 64 13 -5 16
-3 13 7 -5 16 -37 23 -56 11z"/>
<path d="M640 640 c0 -53 4 -90 10 -90 6 0 10 37 10 90 0 53 -4 90 -10 90 -6
0 -10 -37 -10 -90z"/>
<path d="M670 720 c0 -5 4 -10 9 -10 23 0 41 -34 41 -76 0 -38 -4 -46 -25 -56
-27 -12 -34 -28 -12 -28 25 0 55 30 61 63 8 41 -10 94 -34 107 -24 13 -40 13
-40 0z"/>
<path d="M1000 710 c0 -11 5 -20 10 -20 6 0 10 9 10 20 0 11 -4 20 -10 20 -5
0 -10 -9 -10 -20z"/>
<path d="M1116 708 c-30 -43 -12 -158 25 -158 14 0 11 20 -6 36 -19 20 -19 84
0 110 8 10 15 22 15 27 0 15 -19 6 -34 -15z"/>
<path d="M1160 716 c0 -9 4 -16 10 -16 19 0 24 -73 6 -103 -20 -35 -20 -48 -2
-41 33 13 47 97 23 143 -14 29 -37 39 -37 17z"/>
<path d="M490 680 c-14 -9 -12 -11 20 -14 11 -1 15 -14 15 -53 -1 -29 3 -53 7
-53 4 0 11 0 15 0 4 0 6 24 4 53 -4 70 -23 92 -61 67z"/>
<path d="M802 681 c-42 -26 -26 -136 20 -129 12 2 24 9 26 17 3 9 0 12 -10 9
-24 -10 -41 8 -41 41 0 44 20 62 39 36 14 -19 13 -20 -10 -23 -39 -5 -31 -22
9 -22 38 0 42 10 22 49 -12 25 -36 34 -55 22z"/>
<path d="M923 682 c-32 -20 -36 -99 -7 -123 20 -16 28 -5 15 19 -14 27 -14 65
0 79 14 14 8 35 -8 25z"/>
<path d="M950 676 c0 -9 5 -16 10 -16 6 0 10 4 10 9 0 6 -4 13 -10 16 -5 3
-10 -1 -10 -9z"/>
<path d="M1242 629 c2 -45 8 -65 20 -73 9 -5 21 -7 25 -2 4 4 0 12 -10 17 -13
8 -17 23 -17 64 0 32 -4 55 -10 55 -7 0 -10 -23 -8 -61z"/>
<path d="M1300 620 c0 -40 4 -70 10 -70 6 0 10 30 10 70 0 40 -4 70 -10 70 -6
0 -10 -30 -10 -70z"/>
<path d="M1373 683 c-22 -8 -14 -23 10 -20 20 2 22 -2 22 -42 0 -46 -19 -67
-32 -35 -4 11 1 22 13 31 18 14 19 15 0 11 -54 -9 -43 -73 13 -73 l31 0 0 56
c0 68 -17 89 -57 72z"/>
<path d="M480 610 c-8 -14 -8 -26 0 -40 15 -28 32 -25 24 5 -4 15 -1 32 6 40
10 12 9 15 -3 15 -9 0 -21 -9 -27 -20z"/>
<path d="M950 564 c0 -8 5 -12 10 -9 6 3 10 10 10 16 0 5 -4 9 -10 9 -5 0 -10
-7 -10 -16z"/>
</g>
</svg>
