<?xml version="1.0" standalone="no"?>
<!DOCTYPE svg PUBLIC "-//W3C//DTD SVG 20010904//EN"
 "http://www.w3.org/TR/2001/REC-SVG-20010904/DTD/svg10.dtd">
<svg version="1.0" xmlns="http://www.w3.org/2000/svg"
 width="519.000000pt" height="480.000000pt" viewBox="0 0 519.000000 480.000000"
 preserveAspectRatio="xMidYMid meet">

<g transform="translate(0.000000,480.000000) scale(0.100000,-0.100000)"
fill="#d3d3d3" stroke="none">
<path d="M1989 4161 c-198 -28 -430 -151 -547 -290 -57 -67 -144 -206 -189
-301 -37 -78 -86 -211 -79 -217 2 -2 21 21 44 50 51 69 248 254 372 350 220
171 333 217 531 217 124 0 215 -17 321 -59 305 -121 507 -381 558 -716 20
-132 17 -132 102 -4 124 186 252 297 427 370 89 37 246 69 341 69 84 0 245
-30 319 -60 260 -102 460 -330 527 -599 29 -119 33 -290 7 -402 -44 -197 -183
-426 -348 -573 -67 -59 -375 -267 -565 -381 -164 -98 -488 -304 -578 -367
-195 -137 -377 -286 -551 -454 -68 -65 -127 -120 -132 -122 -4 -2 -11 9 -14
25 -22 102 -95 238 -174 323 l-51 55 19 -55 c10 -30 33 -91 51 -135 37 -93 97
-276 106 -322 3 -18 8 -33 11 -33 2 0 28 19 57 42 165 132 321 243 601 429
425 282 550 357 913 547 274 144 389 226 537 384 186 199 309 416 365 643 33
135 31 323 -4 465 -64 256 -241 501 -465 648 -135 87 -305 142 -441 142 -129
-1 -360 -55 -500 -118 -72 -32 -287 -181 -345 -238 -33 -33 -76 -83 -95 -111
-19 -29 -37 -53 -40 -53 -3 0 -5 44 -6 98 -1 172 -81 333 -237 478 -119 111
-307 212 -473 254 -88 23 -284 34 -375 21z"/>
<path d="M1751 3669 c-40 -12 -110 -59 -147 -97 -48 -51 -105 -183 -122 -285
-14 -82 -14 -108 -4 -182 23 -157 82 -273 179 -351 164 -134 373 -40 469 211
36 92 45 275 20 375 -35 140 -111 253 -205 304 -58 31 -136 41 -190 25z"/>
<path d="M712 3330 c-143 -73 -190 -251 -121 -452 54 -159 153 -281 300 -369
81 -48 116 -59 196 -60 302 -3 362 398 105 700 -55 64 -146 133 -222 169 -79
36 -198 42 -258 12z"/>
<path d="M2540 3063 c-114 -58 -225 -209 -250 -342 -13 -70 -13 -207 1 -271
32 -152 173 -265 306 -246 172 23 316 200 354 434 24 146 -33 322 -128 394
-64 48 -92 58 -167 58 -48 0 -74 -6 -116 -27z"/>
<path d="M415 2421 c-145 -39 -215 -124 -215 -263 0 -66 4 -84 35 -144 66
-132 197 -242 354 -296 52 -18 88 -23 166 -23 89 0 105 3 150 27 98 52 145
127 145 234 0 183 -191 392 -410 448 -76 20 -185 28 -225 17z"/>
<path d="M1667 2330 c-186 -47 -376 -281 -488 -600 -77 -217 -91 -288 -91
-465 0 -80 5 -134 15 -163 37 -106 105 -157 212 -156 126 0 251 59 518 243 80
55 163 109 184 119 63 32 153 45 271 39 59 -3 134 -1 167 4 92 14 193 69 257
138 70 75 92 121 92 192 1 87 -44 167 -151 270 -109 104 -207 172 -360 249
-166 83 -333 131 -478 136 -60 2 -127 -1 -148 -6z"/>
</g>
</svg>
