<?xml version="1.0" standalone="no"?>
<!DOCTYPE svg PUBLIC "-//W3C//DTD SVG 20010904//EN"
 "http://www.w3.org/TR/2001/REC-SVG-20010904/DTD/svg10.dtd">
<svg version="1.0" xmlns="http://www.w3.org/2000/svg"
 width="851.000000pt" height="941.000000pt" viewBox="0 0 851.000000 941.000000"
 preserveAspectRatio="xMidYMid meet">

<g transform="translate(0.000000,941.000000) scale(0.100000,-0.100000)"
fill="#d3d3d3" stroke="none">
<path d="M4123 9399 c-113 -10 -239 -39 -336 -77 -67 -26 -3092 -1761 -3237
-1857 -224 -147 -420 -428 -506 -723 -25 -87 -48 -276 -42 -349 l3 -41 1935
1130 c1064 622 1958 1140 1985 1150 160 63 408 63 570 1 69 -27 2016 -1140
2038 -1165 10 -12 17 -37 17 -60 0 -53 -43 -98 -93 -98 -27 0 -246 121 -1029
568 -547 313 -1017 575 -1044 583 -32 9 -95 14 -184 13 -111 0 -144 -4 -185
-20 -98 -40 -2879 -1660 -3223 -1878 -504 -320 -656 -523 -731 -977 -11 -68
-25 -173 -31 -234 -12 -130 -32 -971 -28 -1164 l3 -133 90 78 c50 43 151 138
226 211 l136 134 6 257 c7 341 39 584 114 877 99 389 217 622 346 684 54 26
137 27 192 2 85 -39 157 -146 192 -286 27 -108 24 -375 -5 -522 -65 -325 -210
-590 -538 -979 l-106 -126 11 -89 c14 -112 45 -194 87 -236 26 -27 40 -33 76
-33 85 0 202 74 334 211 64 67 72 79 78 125 17 129 92 289 177 376 116 119
266 144 343 59 15 -16 27 -20 50 -15 35 6 75 -6 99 -31 22 -22 21 -73 -2 -132
-59 -152 -69 -327 -27 -459 33 -104 46 -116 79 -72 14 18 39 61 56 96 26 51
39 67 68 79 63 26 136 -2 148 -56 9 -42 -67 -202 -126 -266 -130 -141 -291
-118 -373 54 l-29 60 -40 -35 c-60 -55 -119 -78 -184 -71 -61 6 -128 41 -166
86 l-24 29 -49 -42 c-116 -101 -225 -159 -344 -184 -71 -15 -81 -15 -145 1
-84 21 -134 52 -173 109 -27 40 -68 144 -89 227 l-8 34 -105 -97 c-109 -102
-238 -213 -328 -281 l-52 -40 3 -495 c4 -423 7 -506 21 -569 38 -162 111 -327
214 -481 70 -104 225 -261 312 -317 189 -119 3176 -1831 3237 -1855 280 -109
655 -109 936 0 61 24 3048 1736 3237 1855 87 56 242 213 312 317 106 160 179
326 215 492 17 78 18 192 18 1953 0 1761 -1 1875 -18 1953 -36 166 -109 333
-215 492 -63 94 -211 249 -284 299 -26 17 -760 442 -1632 945 -1713 987 -1655
956 -1862 990 -121 20 -260 26 -371 15z m3273 -2034 c16 -8 39 -15 52 -15 24
0 30 -15 10 -23 -18 -8 11 -27 28 -20 16 6 37 -43 30 -70 -2 -10 0 -32 6 -49
9 -25 7 -37 -12 -74 -12 -25 -19 -51 -16 -59 3 -9 -12 -39 -35 -69 -46 -62
-85 -76 -158 -56 -33 9 -46 19 -68 58 -15 26 -33 52 -41 57 -12 10 -14 46 -9
152 1 20 14 45 35 68 17 20 32 41 32 47 0 6 11 7 25 4 18 -5 25 -2 25 8 0 10
6 13 15 10 10 -4 15 0 15 13 0 37 20 42 66 18z m-511 -134 c3 -5 18 -12 33
-16 28 -6 68 -56 55 -69 -3 -3 1 -6 10 -6 20 0 23 -36 5 -43 -7 -2 -21 3 -32
12 -17 15 -18 15 -15 -4 3 -15 13 -21 42 -23 28 -2 37 -8 37 -22 0 -10 4 -21
9 -24 10 -6 -6 -96 -20 -110 -5 -6 -9 -18 -9 -28 0 -10 -8 -22 -17 -25 -10 -4
-25 -14 -33 -23 -8 -10 -37 -22 -64 -28 -45 -9 -51 -8 -72 13 -12 13 -25 21
-27 19 -9 -9 -87 115 -81 129 3 8 1 33 -5 55 -9 31 -8 45 4 68 8 16 15 34 15
39 0 16 66 75 84 75 8 0 18 5 21 10 8 13 52 13 60 1z m1100 -64 c18 -18 38
-51 44 -72 13 -49 14 -157 2 -170 -5 -6 -13 -26 -18 -45 -7 -28 -14 -35 -34
-35 -15 0 -31 -10 -42 -27 -11 -16 -27 -28 -37 -28 -10 0 -28 -13 -40 -30 -23
-33 -41 -37 -62 -17 -7 8 -18 12 -25 10 -23 -8 -95 18 -90 32 3 7 -5 23 -19
36 -25 23 -34 82 -14 94 6 4 8 10 5 15 -9 14 16 92 37 116 10 11 18 25 18 32
0 6 13 21 29 33 16 12 32 30 34 40 4 13 14 19 34 19 16 0 38 7 49 15 10 8 36
15 58 15 30 0 45 -7 71 -33z m-2255 -1 c207 -58 370 -178 488 -359 220 -337
200 -785 -48 -1099 -113 -141 -271 -244 -444 -288 -74 -19 -111 -20 -558 -20
l-478 0 0 -476 c0 -288 -4 -473 -9 -469 -5 3 -17 27 -25 53 -64 191 -254 381
-471 469 l-80 32 -3 955 c-2 954 -2 955 19 1012 37 98 134 184 230 204 24 4
330 7 679 6 579 -2 641 -4 700 -20z m1679 -334 c38 -6 60 -16 74 -33 13 -16
38 -27 80 -36 48 -10 66 -19 85 -43 13 -16 32 -30 43 -30 12 0 23 -10 29 -25
5 -14 16 -25 24 -25 21 0 46 -39 46 -71 0 -15 7 -40 15 -55 8 -16 15 -43 15
-59 0 -17 9 -47 20 -68 11 -20 17 -37 13 -37 -5 0 6 -12 22 -26 20 -17 26 -27
17 -30 -9 -4 -7 -12 8 -31 25 -32 26 -68 3 -85 -10 -7 -18 -19 -19 -25 -1 -7
-2 -20 -2 -29 -3 -21 -121 -133 -149 -140 -12 -3 -25 -13 -28 -22 -4 -15 -61
-59 -90 -71 -5 -2 -18 -13 -28 -25 -16 -18 -22 -19 -50 -8 -27 10 -29 9 -14
-2 24 -19 22 -23 -25 -47 -43 -22 -140 -42 -196 -40 -37 1 -92 26 -92 41 0 6
-7 10 -16 10 -9 0 -25 11 -36 25 -11 14 -25 25 -32 25 -7 0 -21 9 -30 19 -10
11 -32 24 -49 31 -18 6 -44 18 -58 26 -14 7 -46 16 -70 20 -24 4 -53 14 -64
24 -11 9 -28 20 -38 23 -9 4 -19 12 -21 19 -27 96 -40 138 -52 161 -8 16 -11
33 -8 39 4 5 2 20 -4 31 -5 12 -14 45 -20 72 -24 120 -19 192 20 275 20 44 37
62 77 87 28 18 70 37 94 43 58 15 130 49 144 67 8 10 34 18 68 21 30 2 58 9
61 14 6 10 150 4 233 -10z m841 -162 c26 -13 40 -27 40 -40 0 -11 4 -20 10
-20 6 0 8 -24 5 -60 -6 -78 -42 -135 -102 -161 -24 -10 -50 -16 -58 -13 -9 4
-18 -1 -21 -11 -14 -36 -152 4 -192 55 -37 47 -33 129 8 171 16 17 32 40 36
51 4 13 12 18 25 15 12 -3 20 2 25 15 4 15 13 18 37 16 22 -2 31 -8 29 -18 -2
-12 1 -11 11 2 32 40 65 40 147 -2z m-4270 -820 l0 -320 -448 0 c-520 0 -523
0 -602 -80 -138 -137 -93 -394 82 -470 49 -21 80 -24 443 -41 495 -22 530 -25
612 -50 253 -78 443 -280 530 -566 24 -79 26 -105 27 -248 1 -138 -2 -172 -22
-244 -85 -312 -325 -577 -607 -672 l-70 -24 -710 0 -710 0 -55 26 c-31 14 -72
41 -93 58 -85 76 -120 229 -78 342 27 72 89 142 155 177 l51 27 690 5 c627 5
694 7 728 22 62 28 111 73 142 130 77 141 2 339 -144 377 -20 6 -173 17 -341
26 -596 32 -710 41 -771 64 -169 64 -367 273 -454 480 -59 140 -70 200 -69
371 1 170 15 241 74 383 88 212 276 402 482 489 129 54 152 56 676 57 l482 1
0 -320z m2745 -100 c44 -12 122 -41 172 -65 297 -140 497 -386 586 -717 22
-83 22 -86 22 -978 l0 -895 -27 -50 c-59 -111 -154 -169 -278 -170 -140 0
-252 78 -297 208 -16 47 -18 92 -17 480 l0 427 -437 0 -438 0 -3 -447 -3 -448
-27 -50 c-59 -111 -154 -169 -278 -170 -125 0 -227 62 -281 171 l-24 49 0 905
0 905 22 81 c24 88 63 183 102 252 24 41 26 42 77 42 105 0 302 55 404 113
130 73 265 203 335 322 34 58 40 64 73 67 72 6 238 -11 317 -32z m-2460 -3232
c3 -13 4 -129 3 -258 l-3 -235 -28 -3 c-17 -2 -29 2 -33 12 -5 14 -8 14 -27 1
-12 -9 -44 -15 -74 -15 -70 0 -116 38 -139 116 -45 155 73 297 196 236 l40
-19 0 87 c0 47 3 90 7 93 16 16 53 6 58 -15z m-1131 -24 c31 -30 8 -69 -36
-62 -26 3 -37 41 -18 64 16 18 35 18 54 -2z m2155 6 c22 -11 186 -442 177
-465 -3 -8 -16 -15 -30 -15 -20 0 -27 9 -42 50 l-18 50 -106 0 -106 0 -21 -50
c-18 -42 -26 -50 -47 -50 -20 0 -26 5 -26 22 0 29 149 428 168 451 17 20 26
21 51 7z m615 -12 c19 -27 5 -58 -27 -58 -43 0 -60 35 -31 64 21 22 40 20 58
-6z m-4619 -2 c99 -42 109 -199 17 -261 -30 -21 -49 -25 -104 -25 l-68 0 0
-67 c0 -96 -7 -115 -39 -111 l-26 3 -3 225 c-1 123 0 230 2 237 8 19 176 17
221 -1z m733 -53 c3 -49 5 -53 28 -53 22 0 25 -4 22 -27 -2 -20 -9 -29 -25
-31 -22 -3 -23 -7 -25 -150 -3 -146 -3 -147 -27 -150 -13 -2 -28 2 -32 10 -5
7 -9 74 -9 149 l0 137 -26 6 c-33 9 -31 49 4 54 19 3 22 9 22 46 0 47 15 68
45 64 17 -3 21 -12 23 -55z m780 0 c3 -49 5 -53 28 -53 22 0 25 -4 22 -27 -2
-20 -9 -29 -25 -31 -22 -3 -23 -7 -25 -150 l-3 -147 -30 0 -30 0 -3 146 c-2
139 -4 147 -23 152 -12 3 -30 1 -40 -6 -14 -9 -27 -8 -54 2 -113 40 -183 -131
-90 -219 23 -22 38 -23 119 -8 10 1 23 -5 30 -15 31 -50 -112 -80 -181 -37
-41 24 -59 53 -72 112 -23 102 28 206 111 229 46 12 112 4 132 -17 12 -11 15
-11 20 1 3 8 15 15 26 15 17 0 20 6 20 39 0 58 8 73 39 69 24 -3 26 -7 29 -55z
m-1346 -62 c11 -18 12 -18 44 1 44 26 76 17 72 -20 -2 -18 -12 -28 -35 -36
-62 -21 -68 -34 -73 -169 l-5 -122 -30 0 -30 0 -3 169 c-3 170 2 196 34 196 8
0 19 -8 26 -19z m370 -12 c92 -66 90 -261 -4 -319 -66 -40 -172 -19 -213 43
-27 41 -39 126 -26 175 15 53 63 109 105 122 43 13 103 3 138 -21z m460 21
c41 -12 95 -67 103 -105 3 -14 7 -36 10 -49 10 -46 -15 -56 -141 -56 -63 0
-114 -2 -114 -5 0 -17 33 -66 49 -75 31 -16 93 -12 129 10 39 24 61 25 69 5
14 -39 -66 -85 -149 -85 -88 0 -137 41 -157 133 -21 93 18 184 93 218 48 22
58 22 108 9z m642 4 c9 -3 16 -15 16 -26 0 -18 2 -18 31 6 35 30 51 32 74 10
23 -23 15 -36 -34 -60 -24 -12 -49 -30 -55 -40 -6 -10 -13 -71 -16 -134 -5
-112 -6 -115 -29 -118 -13 -2 -28 2 -32 10 -12 19 -11 315 1 339 11 20 19 23
44 13z m205 -8 c8 -9 11 -66 9 -182 l-3 -169 -30 0 -30 0 -3 169 c-2 168 2
196 33 196 7 0 18 -6 24 -14z m270 3 c36 -13 54 -38 41 -59 -7 -12 -16 -12
-54 -2 -57 15 -89 4 -116 -40 -25 -41 -26 -102 -2 -148 21 -43 58 -58 110 -44
48 13 62 8 62 -20 0 -34 -38 -49 -109 -44 -47 3 -67 10 -87 29 -56 51 -77 138
-53 219 16 53 48 89 94 105 49 17 73 18 114 4z m287 -8 c47 -22 80 -68 90
-129 10 -67 0 -72 -132 -72 -74 0 -114 -4 -114 -11 0 -16 21 -53 39 -66 26
-20 105 -16 134 7 14 11 35 20 47 20 17 0 21 -5 18 -27 -7 -64 -159 -98 -234
-53 -44 28 -74 92 -74 160 0 139 111 223 226 171z m823 9 c60 -17 102 -69 115
-142 11 -60 -6 -68 -139 -68 l-114 0 11 -30 c5 -17 20 -37 31 -45 30 -21 96
-19 135 5 36 22 58 25 67 10 24 -39 -59 -90 -147 -90 -102 0 -158 63 -158 180
0 85 28 136 90 168 50 25 61 26 109 12z m316 -1 c48 -13 75 -35 75 -61 0 -29
-28 -33 -70 -9 -46 26 -61 26 -90 3 -32 -26 -17 -45 66 -82 41 -18 81 -42 89
-54 24 -34 19 -82 -14 -118 -25 -28 -36 -32 -90 -36 -76 -5 -138 18 -147 55
-11 42 11 51 59 25 71 -37 145 -24 135 24 -2 11 -35 33 -80 55 -76 38 -108 68
-108 101 0 36 26 71 65 89 47 22 57 22 110 8z m719 5 c9 -3 16 -12 16 -19 0
-9 11 -7 40 7 50 25 98 18 141 -20 37 -33 48 -80 48 -202 1 -114 -5 -132 -38
-128 l-26 3 -5 127 c-4 114 -7 130 -27 149 -29 29 -77 29 -106 0 -20 -19 -23
-35 -27 -149 -5 -125 -5 -127 -29 -130 -13 -2 -28 2 -32 10 -12 19 -11 315 1
339 11 20 19 23 44 13z m355 -8 c8 -9 11 -66 9 -182 l-3 -169 -30 0 -30 0 -3
169 c-2 168 2 196 33 196 7 0 18 -6 24 -14z m115 8 c9 -3 16 -13 16 -22 0 -13
2 -13 18 1 10 9 32 19 48 23 35 7 101 -17 110 -41 5 -12 11 -11 35 10 61 50
149 38 189 -27 18 -30 20 -47 18 -168 -3 -134 -3 -135 -27 -138 -13 -2 -28 2
-32 10 -5 7 -9 68 -9 135 0 120 0 122 -27 143 -19 15 -35 19 -53 15 -50 -12
-55 -26 -60 -168 -5 -130 -5 -132 -29 -135 -13 -2 -28 2 -32 10 -5 7 -9 67 -9
133 0 66 -4 125 -8 131 -13 20 -51 35 -76 28 -45 -11 -51 -29 -56 -168 -5
-129 -5 -131 -29 -134 -13 -2 -28 2 -32 10 -12 19 -11 315 1 339 11 20 19 23
44 13z m699 -14 c29 -16 37 -17 37 -6 0 19 30 29 46 15 12 -10 14 -46 12 -183
l-3 -171 -27 -3 c-23 -3 -28 1 -28 18 l0 21 -26 -20 c-37 -29 -110 -28 -154 2
-140 94 -80 339 85 346 11 1 37 -8 58 -19z m203 12 c8 -4 13 -53 15 -133 3
-108 7 -130 23 -148 19 -21 78 -29 103 -13 24 15 33 65 33 177 0 108 1 114 22
121 41 13 50 -17 46 -156 -4 -137 -12 -160 -61 -190 -39 -24 -125 -27 -167 -5
-51 26 -60 59 -60 209 0 98 3 136 13 139 17 8 21 8 33 -1z m338 -17 c13 -14
34 -41 47 -60 13 -19 27 -35 30 -35 3 0 27 27 53 61 49 63 78 74 84 32 2 -15
-13 -44 -42 -82 -25 -33 -46 -64 -46 -68 0 -5 25 -42 55 -83 60 -78 65 -103
24 -108 -21 -2 -33 8 -76 67 l-51 71 -51 -70 c-39 -55 -56 -70 -76 -70 -42 0
-32 40 31 120 l56 71 -47 60 c-56 73 -61 85 -45 104 17 21 27 19 54 -10z
m-4340 -587 c10 -40 7 -458 -4 -479 -13 -22 -48 -25 -56 -4 -5 12 -9 12 -30
-2 -39 -25 -127 -14 -164 22 -83 79 -77 242 11 307 41 30 101 34 144 10 l35
-21 0 88 c0 48 3 91 7 94 15 16 51 6 57 -15z m1204 -17 c8 -5 12 -21 10 -37
-2 -21 -9 -30 -26 -32 -44 -7 -67 32 -36 62 17 18 32 20 52 7z m976 -5 c44
-18 66 -52 66 -99 0 -42 -24 -97 -43 -97 -6 0 3 -12 20 -26 53 -42 63 -113 26
-187 -47 -93 -211 -89 -257 7 -31 66 -13 161 35 187 l21 11 -21 22 c-28 29
-37 87 -21 125 25 61 104 86 174 57z m387 4 c17 -10 19 -23 19 -155 l0 -145
24 0 c13 0 27 -7 30 -16 8 -21 -11 -44 -35 -44 -15 0 -19 -10 -21 -57 -3 -52
-5 -58 -27 -61 -31 -5 -41 12 -41 70 l0 47 -102 3 c-89 3 -103 5 -106 21 -4
18 169 313 196 335 19 15 37 15 63 2z m-683 -220 c1 -118 0 -225 -3 -238 -4
-18 -11 -23 -33 -20 l-27 3 -3 208 -2 207 -34 0 c-37 0 -62 21 -52 45 5 13 20
15 78 13 l73 -3 3 -215z m1088 205 c12 -31 -15 -45 -87 -45 -74 0 -71 2 -83
-71 l-6 -37 42 5 c83 8 138 -54 138 -154 0 -60 -25 -111 -70 -141 -70 -48
-220 -11 -220 54 0 34 24 40 60 14 16 -12 45 -24 64 -27 30 -5 40 -1 66 25 38
38 41 95 8 137 -21 27 -24 27 -90 21 -66 -6 -68 -5 -68 16 0 21 11 98 25 186
l6 32 105 0 c84 0 106 -3 110 -15z m-2678 -122 c40 -30 64 -67 72 -114 13 -69
13 -69 -126 -69 -68 0 -124 -2 -124 -5 0 -20 32 -75 48 -84 32 -17 94 -13 127
9 36 24 63 26 71 5 14 -36 -69 -85 -146 -85 -91 0 -141 43 -160 136 -20 95 23
191 100 223 35 15 108 7 138 -16z m189 7 c5 -19 7 -20 23 -5 29 26 91 30 134
10 104 -50 127 -220 42 -312 -27 -29 -41 -36 -82 -40 -35 -4 -60 0 -82 11
l-31 16 -3 -82 c-3 -79 -4 -83 -27 -86 -13 -2 -28 2 -32 10 -13 19 -11 455 1
479 14 25 50 25 57 -1z m361 8 c8 -8 12 -51 12 -126 0 -108 8 -147 34 -164 22
-15 76 -8 96 12 18 18 20 33 20 138 0 126 10 157 46 150 18 -3 19 -13 19 -150
l0 -148 -32 -32 c-28 -28 -40 -32 -95 -36 -51 -2 -70 1 -96 18 -50 31 -62 71
-62 208 0 115 7 142 35 142 6 0 16 -5 23 -12z m360 0 c14 -14 17 -325 3 -346
-4 -8 -19 -12 -32 -10 l-24 3 -3 169 c-2 167 2 196 32 196 7 0 17 -5 24 -12z
m262 -4 c49 -20 65 -44 45 -70 -13 -18 -15 -18 -59 6 -37 20 -50 22 -73 14
-18 -6 -29 -18 -31 -32 -3 -19 7 -27 65 -53 93 -42 113 -62 113 -114 0 -68
-48 -105 -136 -105 -80 0 -144 42 -128 84 8 21 33 20 69 -4 39 -26 96 -26 120
0 17 19 17 21 1 39 -10 11 -41 29 -69 41 -98 42 -132 100 -91 159 34 48 105
62 174 35z"/>
<path d="M4690 6310 l0 -321 433 3 c494 3 471 -1 560 98 58 64 82 132 81 226
-2 123 -63 226 -169 282 l-50 27 -427 3 -428 3 0 -321z"/>
<path d="M7630 6664 c0 -8 5 -12 10 -9 6 4 8 11 5 16 -9 14 -15 11 -15 -7z"/>
<path d="M6790 6131 c0 -6 4 -13 10 -16 6 -3 7 1 4 9 -7 18 -14 21 -14 7z"/>
<path d="M7660 5960 c0 -5 5 -10 11 -10 5 0 7 5 4 10 -3 6 -8 10 -11 10 -2 0
-4 -4 -4 -10z"/>
<path d="M7175 5910 c3 -5 8 -10 11 -10 2 0 4 5 4 10 0 6 -5 10 -11 10 -5 0
-7 -4 -4 -10z"/>
<path d="M6303 5075 c-118 -33 -210 -99 -258 -186 -30 -54 -30 -55 -33 -241
l-4 -188 437 0 437 0 -4 199 -3 199 -38 55 c-43 62 -115 117 -197 149 -72 28
-259 35 -337 13z"/>
<path d="M4083 2320 c-48 -20 -73 -96 -54 -167 13 -47 42 -73 82 -73 42 0 58
10 76 43 34 66 10 177 -43 197 -29 12 -32 12 -61 0z"/>
<path d="M5224 2295 l-41 -115 83 0 c46 0 84 3 84 6 0 12 -72 209 -79 216 -3
4 -25 -44 -47 -107z"/>
<path d="M1130 2350 l0 -90 59 0 c54 0 62 3 85 31 35 41 34 83 -3 120 -26 25
-37 29 -85 29 l-56 0 0 -90z"/>
<path d="M1700 2317 c-52 -26 -74 -114 -46 -182 16 -37 42 -55 80 -55 38 0 56
10 73 43 34 66 10 177 -43 197 -32 12 -34 12 -64 -3z"/>
<path d="M2205 2321 c-26 -11 -51 -40 -58 -68 -5 -23 -4 -23 88 -23 92 0 92 0
88 24 -10 49 -74 85 -118 67z"/>
<path d="M3584 2320 c-26 -10 -54 -48 -54 -72 0 -16 10 -18 90 -18 56 0 90 4
90 10 0 24 -30 67 -55 78 -30 14 -42 14 -71 2z"/>
<path d="M4435 2321 c-26 -11 -41 -29 -54 -64 l-11 -27 96 0 c94 0 95 0 89 23
-16 51 -77 86 -120 68z"/>
<path d="M6620 2317 c-52 -26 -74 -114 -46 -182 16 -38 42 -55 83 -55 53 0 83
42 83 118 0 63 -19 104 -55 120 -32 15 -34 15 -65 -1z"/>
<path d="M2719 1575 c-72 -39 -60 -212 16 -231 14 -3 36 -3 50 0 78 20 88 193
14 231 -34 18 -47 18 -80 0z"/>
<path d="M5002 1694 c-26 -18 -30 -74 -6 -98 33 -34 104 -4 104 44 0 23 -42
70 -62 70 -8 0 -24 -7 -36 -16z"/>
<path d="M5007 1513 c-23 -6 -47 -54 -47 -93 0 -40 39 -80 78 -80 68 0 99 104
47 155 -23 24 -40 28 -78 18z"/>
<path d="M5367 1570 c-31 -55 -57 -102 -57 -105 0 -3 27 -5 60 -5 l60 0 0 105
c0 58 -1 105 -3 105 -1 0 -28 -45 -60 -100z"/>
<path d="M3079 1575 c-21 -11 -49 -58 -49 -81 0 -2 42 -4 94 -4 l93 0 -5 25
c-6 31 -56 75 -85 75 -12 -1 -34 -7 -48 -15z"/>
<path d="M3453 1580 c-57 -23 -72 -162 -23 -215 42 -45 111 -29 136 30 29 70
8 161 -42 184 -29 13 -41 13 -71 1z"/>
<path d="M972 6076 c-102 -117 -235 -577 -282 -980 -16 -132 -27 -365 -18
-360 17 11 139 177 205 279 123 192 201 368 239 542 25 114 22 304 -5 407 -39
147 -79 180 -139 112z"/>
<path d="M1586 4628 c-74 -56 -146 -218 -146 -332 0 -106 55 -160 107 -103 52
56 103 230 103 354 0 109 -10 121 -64 81z"/>
</g>
</svg>
