<?xml version="1.0" standalone="no"?>
<!DOCTYPE svg PUBLIC "-//W3C//DTD SVG 20010904//EN"
 "http://www.w3.org/TR/2001/REC-SVG-20010904/DTD/svg10.dtd">
<svg version="1.0" xmlns="http://www.w3.org/2000/svg"
 width="64.000000pt" height="64.000000pt" viewBox="0 0 64.000000 64.000000"
 preserveAspectRatio="xMidYMid meet">

<g transform="translate(0.000000,64.000000) scale(0.100000,-0.100000)"
fill="#d3d3d3" stroke="none">
<path d="M127 628 c-53 -14 -101 -65 -116 -121 -14 -59 -14 -315 0 -374 17
-64 64 -108 131 -123 34 -8 113 -11 213 -9 146 4 163 6 197 27 20 13 47 40 60
60 22 35 23 46 23 232 0 222 -5 240 -77 288 -41 27 -44 27 -217 29 -100 1
-193 -3 -214 -9z m390 -65 c55 -26 63 -57 63 -243 0 -256 -4 -260 -262 -260
-176 0 -196 5 -232 53 -19 26 -21 41 -21 207 0 166 2 181 21 207 36 48 56 53
232 53 133 0 171 -3 199 -17z"/>
<path d="M466 514 c-9 -8 -16 -19 -16 -24 0 -9 28 -40 36 -40 17 0 44 23 44
38 0 38 -37 53 -64 26z"/>
<path d="M242 463 c-47 -23 -75 -67 -80 -128 -8 -102 47 -166 150 -173 50 -4
64 -1 98 22 49 32 72 76 72 136 0 94 -65 160 -157 160 -27 0 -65 -8 -83 -17z
m144 -60 c61 -40 49 -144 -21 -177 -44 -21 -79 -15 -117 22 -23 21 -28 35 -28
72 0 38 5 51 28 72 43 41 88 44 138 11z"/>
</g>
</svg>
