<?xml version="1.0" standalone="no"?>
<!DOCTYPE svg PUBLIC "-//W3C//DTD SVG 20010904//EN"
 "http://www.w3.org/TR/2001/REC-SVG-20010904/DTD/svg10.dtd">
<svg version="1.0" xmlns="http://www.w3.org/2000/svg"
 width="392.000000pt" height="229.000000pt" viewBox="0 0 392.000000 229.000000"
 preserveAspectRatio="xMidYMid meet">

<g transform="translate(0.000000,229.000000) scale(0.100000,-0.100000)"
fill="#ffffff80" stroke="none">
<path d="M350 2186 c-96 -19 -107 -24 -124 -59 -8 -18 -31 -57 -50 -87 -34
-53 -34 -55 -19 -90 9 -19 15 -43 15 -52 -1 -29 27 -20 49 15 l21 32 -5 -38
c-4 -22 -2 -35 4 -32 13 9 11 -2 -7 -36 -8 -17 -15 -49 -13 -72 1 -23 -2 -50
-6 -60 -7 -17 -2 -134 9 -217 3 -19 8 -66 12 -105 4 -38 8 -72 9 -75 1 -3 4
-12 7 -20 32 -85 68 -287 68 -383 0 -103 -33 -179 -83 -194 -20 -5 -33 -17
-40 -36 -15 -46 -4 -57 55 -56 60 1 93 18 103 51 4 13 12 29 18 36 19 24 48
125 43 148 -4 13 0 28 7 36 7 6 12 22 9 35 -2 12 -1 34 2 48 6 25 6 25 26 5
13 -13 20 -33 20 -59 0 -32 7 -48 35 -78 l35 -38 -47 -3 c-26 -2 -53 -8 -60
-14 -19 -16 -16 -56 6 -68 20 -10 111 -3 111 10 0 14 76 39 118 39 l42 0 0
-74 0 -74 36 -7 c36 -7 108 9 119 26 3 4 -4 32 -15 60 -11 28 -20 55 -20 60 0
6 23 10 50 10 47 0 50 -2 50 -25 0 -31 33 -46 84 -38 35 5 55 31 41 53 -3 5
-2 10 4 10 6 0 19 10 30 22 17 18 23 19 36 8 18 -15 23 -16 148 -25 104 -8
137 -1 92 21 -25 12 -26 13 -5 9 60 -14 153 -18 146 -6 -5 8 8 11 43 11 27 0
52 4 56 10 3 5 -13 22 -36 37 -41 27 -47 28 -196 31 -91 2 -151 7 -148 13 8
12 -31 12 -73 0 -20 -6 -32 -6 -33 0 -1 5 -2 13 -3 18 0 5 -4 13 -8 17 -5 4
-8 19 -8 34 0 42 -21 92 -52 124 -26 27 -30 35 -27 52 1 3 -12 19 -27 35 -15
16 -22 29 -16 29 13 0 -7 49 -33 80 -12 15 -54 126 -57 150 0 3 -12 19 -27 36
-64 76 -121 152 -121 162 0 5 -6 15 -14 21 -7 6 -13 23 -13 36 0 14 -17 49
-37 78 -39 56 -46 78 -19 56 15 -12 16 -12 10 5 -5 12 -2 25 7 35 44 48 51 58
51 74 0 10 -5 21 -11 25 -6 4 -23 30 -38 57 -16 28 -34 57 -42 66 -8 8 -14 19
-14 23 0 12 -43 45 -58 46 -7 0 -25 6 -40 14 -41 21 -109 25 -182 12z"/>
<path d="M3545 2173 c-100 -9 -111 -25 -166 -248 -54 -216 -49 -592 11 -841
34 -141 95 -286 125 -298 21 -8 183 -8 224 0 17 4 31 13 31 20 0 10 -23 14
-87 17 l-88 3 88 2 c123 3 112 22 -15 24 l-103 2 95 3 c136 5 140 23 4 25
l-109 2 105 5 c58 4 104 10 102 15 -1 5 -50 9 -110 9 l-107 0 102 6 c56 3 105
9 109 13 4 5 -44 9 -107 10 l-114 1 115 11 115 11 -120 5 c-66 4 -95 7 -64 8
91 3 179 14 179 22 0 5 -53 7 -117 5 -65 -1 -93 -1 -63 1 125 8 180 16 180 26
0 7 -40 9 -122 5 -83 -3 -103 -2 -63 3 33 4 88 8 123 9 38 1 62 5 62 12 0 8
-38 10 -127 7 -71 -2 -117 -1 -103 3 14 4 71 7 128 8 69 1 102 5 102 12 0 9
-36 10 -130 7 -74 -3 -127 -2 -124 3 3 5 59 9 124 9 79 0 121 4 126 12 5 8
-26 10 -124 5 -83 -4 -132 -3 -132 3 0 6 47 10 113 11 61 0 121 4 132 9 13 6
-28 8 -113 7 -72 -1 -132 1 -132 6 0 4 56 7 124 7 73 0 127 4 131 10 4 6 -43
11 -132 12 l-138 2 120 6 c153 9 150 9 141 17 -4 4 -66 7 -139 6 l-132 -1 135
8 c153 9 140 7 140 20 0 7 -47 9 -137 6 -162 -6 -150 0 20 9 167 10 150 27
-20 21 -94 -3 -122 -2 -88 4 28 4 90 9 138 9 51 1 86 5 83 10 -4 5 -67 8 -144
6 -106 -3 -121 -2 -67 5 39 4 100 8 137 9 37 0 70 6 74 12 5 8 -32 10 -137 6
-82 -3 -131 -2 -114 2 17 5 75 9 130 10 55 1 107 6 115 12 11 7 -26 9 -130 7
-80 -3 -131 -1 -115 3 17 3 78 7 137 8 165 2 145 21 -24 23 l-143 2 135 3
c187 5 194 22 10 25 l-145 2 132 5 c72 3 135 10 140 14 4 5 -54 7 -130 5 -75
-2 -137 0 -137 5 0 4 24 7 53 7 83 0 217 12 217 20 0 3 -62 5 -137 4 -155 -3
-145 3 27 15 l115 8 -145 3 -145 3 143 10 c78 5 142 14 142 19 0 6 -55 7 -142
4 -79 -3 -136 -3 -128 -1 8 2 72 7 143 10 78 4 127 11 127 18 0 7 -46 8 -142
5 -84 -3 -122 -2 -93 2 28 5 92 9 143 9 62 1 92 5 92 12 0 9 -37 10 -141 5
-97 -5 -139 -4 -134 4 4 6 56 10 135 10 84 0 131 4 136 11 5 8 -31 10 -130 7
-75 -2 -136 0 -136 4 0 4 55 8 123 8 70 0 128 5 137 11 11 8 -24 9 -122 5 -85
-3 -138 -1 -138 4 0 6 30 11 68 11 37 1 99 5 137 9 57 6 44 7 -68 6 -75 0
-137 2 -137 7 0 4 42 7 93 8 50 0 112 4 137 8 35 7 13 9 -95 12 -77 1 -117 4
-90 6 152 9 215 16 215 23 0 4 -60 6 -132 4 -158 -4 -150 2 15 11 69 4 117 11
117 17 0 7 -45 9 -132 5 -78 -4 -123 -3 -108 2 14 5 73 9 133 10 72 1 107 5
107 12 0 9 -34 10 -125 5 -87 -5 -125 -4 -125 3 0 7 42 11 125 11 75 0 125 4
125 10 0 6 -46 7 -125 3 -91 -4 -125 -3 -125 5 0 8 34 12 113 12 62 0 119 5
127 11 11 8 -21 9 -112 6 -74 -3 -126 -1 -122 4 3 5 56 9 119 9 65 0 116 4
120 10 4 6 -38 11 -117 12 l-123 1 118 7 c64 4 120 10 124 13 3 4 -50 8 -118
9 -68 1 -97 3 -64 5 200 10 253 33 63 27 l-113 -3 120 13 c140 15 139 18 -4
16 -72 -1 -101 2 -96 9 3 7 48 12 108 13 l102 2 -105 5 c-79 5 -97 8 -71 14
18 4 64 7 102 7 38 0 69 4 69 9 0 6 -40 7 -95 4 -68 -4 -95 -3 -95 6 0 7 29
11 89 11 54 0 93 4 96 11 5 7 -17 10 -73 7 -44 -2 -78 0 -75 5 2 4 38 7 79 7
56 0 74 3 74 14 0 13 -68 28 -114 24 -12 -1 -39 -3 -61 -5z"/>
<path d="M2440 2053 c0 -53 100 -593 130 -703 5 -19 23 -89 39 -155 16 -66 32
-127 35 -135 4 -10 -23 -47 -76 -105 -95 -104 -159 -158 -243 -205 -102 -57
-137 -99 -165 -203 -35 -128 38 -257 145 -257 48 0 103 34 125 76 8 16 16 31
17 33 1 2 10 -2 19 -10 14 -11 18 -11 30 6 21 28 18 75 -3 75 -15 0 -18 10
-19 68 -1 45 -8 81 -21 110 -11 24 -18 53 -15 64 7 27 104 125 176 178 75 54
141 74 184 53 41 -20 182 -167 212 -221 24 -43 24 -44 6 -75 -53 -92 -60 -111
-59 -174 0 -56 7 -77 47 -157 25 -51 53 -115 61 -142 17 -54 35 -79 82 -112
33 -24 73 -29 73 -10 0 6 -18 28 -40 48 -32 29 -40 44 -40 71 1 45 16 70 68
115 64 55 89 134 72 226 -18 90 -45 134 -124 192 -104 78 -139 118 -145 167
-3 23 -13 45 -21 49 -62 29 -78 40 -103 76 l-29 41 26 64 c41 105 157 438 199
574 41 133 90 335 84 342 -4 3 -9 4 -10 2 -4 -4 -78 -145 -182 -344 -148 -284
-190 -362 -200 -377 -10 -15 -17 -3 -50 85 -21 56 -44 116 -51 132 -17 41 -93
235 -144 370 -55 146 -72 185 -82 185 -4 0 -8 -8 -8 -17z m-60 -1393 c28 -15
53 -92 48 -144 -8 -70 -47 -138 -90 -159 -34 -16 -39 -17 -66 -3 -32 17 -62
77 -62 124 0 50 31 135 60 164 30 29 75 37 110 18z m789 -41 c35 -32 51 -81
51 -151 0 -187 -165 -213 -199 -32 -27 141 68 257 148 183z"/>
<path d="M1699 1980 c-125 -131 -23 -408 127 -345 92 38 134 175 86 286 -28
65 -72 99 -129 99 -41 0 -51 -5 -84 -40z"/>
<path d="M1354 1886 c-43 -19 -64 -53 -64 -102 0 -120 121 -254 228 -254 118
0 138 158 35 281 -30 35 -96 75 -138 83 -17 3 -44 -1 -61 -8z"/>
<path d="M2060 1826 c-45 -25 -74 -92 -74 -171 0 -102 44 -179 109 -191 134
-25 204 222 96 337 -42 43 -83 51 -131 25z"/>
<path d="M1187 1549 c-24 -14 -47 -62 -47 -101 0 -64 60 -161 127 -205 34 -22
90 -32 126 -22 40 11 67 53 67 105 0 45 -41 131 -78 167 -61 57 -149 83 -195
56z"/>
<path d="M1665 1545 c-49 -36 -108 -104 -133 -155 -23 -47 -27 -68 -27 -145 0
-100 24 -190 62 -231 43 -47 121 -24 170 48 55 82 127 107 210 73 60 -25 110
-20 145 15 35 36 35 65 -2 163 -40 106 -126 193 -225 228 -66 23 -171 25 -200
4z"/>
</g>
</svg>
